HIERARCHY
ROOT reference
{
  OFFSET 0 0 0
  CHANNELS 6 Xposition Yposition Zposition Zrotation Xrotation Yrotation
  JOINT Hips
  {
    OFFSET 366.965 89.8555 201.872
    CHANNELS 3 Zrotation Xrotation Yrotation
    JOINT RightUpLeg
    {
      OFFSET -9.27238 -1.56811 0.0123499
      CHANNELS 3 Zrotation Xrotation Yrotation
      JOINT RightLeg
      {
        OFFSET 0.00682797 -41.8882 0.0419786
        CHANNELS 3 Zrotation Xrotation Yrotation
        JOINT RightFoot
        {
          OFFSET 0.530869 -42.1265 0.242224
          CHANNELS 3 Zrotation Xrotation Yrotation
          End Site
          {
            OFFSET 0 -7.69 17.5
          }
        }
      }
    }
    JOINT LeftUpLeg
    {
      OFFSET 9.28391 -1.61639 -0.0258413
      CHANNELS 3 Zrotation Xrotation Yrotation
      JOINT LeftLeg
      {
        OFFSET 0.0291166 -41.8727 -0.014263
        CHANNELS 3 Zrotation Xrotation Yrotation
        JOINT LeftFoot
        {
          OFFSET -0.125672 -41.4933 -0.195947
          CHANNELS 3 Zrotation Xrotation Yrotation
          End Site
          {
            OFFSET 0 -7.69 17.5
          }
        }
      }
    }
    JOINT Spine
    {
      OFFSET 0.0325614 14.2957 0.0242834
      CHANNELS 3 Zrotation Xrotation Yrotation
      JOINT Spine1
      {
        OFFSET 0.00746153 9.71731 0.0172653
        CHANNELS 3 Zrotation Xrotation Yrotation
        JOINT Spine2
        {
          OFFSET 0.0283815 10.1155 -0.00252583
          CHANNELS 3 Zrotation Xrotation Yrotation
          JOINT Spine3
          {
            OFFSET 0.0279172 9.71841 -0.00465252
            CHANNELS 3 Zrotation Xrotation Yrotation
            JOINT Neck
            {
              OFFSET 0.0182001 10.3765 0.0184284
              CHANNELS 3 Zrotation Xrotation Yrotation
              JOINT Head
              {
                OFFSET 0.0113688 9.47343 0.00632939
                CHANNELS 3 Zrotation Xrotation Yrotation
                End Site
                {
                  OFFSET 0 15.95 0
                }
              }
            }
            JOINT RightShoulder
            {
              OFFSET -3.17351 6.93492 0.00767284
              CHANNELS 3 Zrotation Xrotation Yrotation
              JOINT RightArm
              {
                OFFSET -12.7835 -0.0133269 0.0174019
                CHANNELS 3 Zrotation Xrotation Yrotation
                JOINT RightForeArm
                {
                  OFFSET -26.5112 -0.0170228 0.0247955
                  CHANNELS 3 Zrotation Xrotation Yrotation
                  JOINT RightHand
                  {
                    OFFSET -25.9918 -0.0199622 0.0218897
                    CHANNELS 3 Zrotation Xrotation Yrotation
                    JOINT RightHandThumb1
                    {
                      OFFSET -2.48905 0.190105 3.12053
                      CHANNELS 3 Zrotation Xrotation Yrotation
                      JOINT RightHandThumb2
                      {
                        OFFSET -3.68274 0 0
                        CHANNELS 3 Zrotation Xrotation Yrotation
                        JOINT RightHandThumb3
                        {
                          OFFSET -2.55832 0 0
                          CHANNELS 3 Zrotation Xrotation Yrotation
                          End Site
                          {
                            OFFSET -2.194 0 0
                          }
                        }
                      }
                    }
                    JOINT RightInHandIndex
                    {
                      OFFSET -3.22368 0.508421 1.97842
                      CHANNELS 3 Zrotation Xrotation Yrotation
                      JOINT RightHandIndex1
                      {
                        OFFSET -5.21684 -0.091368 0.999158
                        CHANNELS 3 Zrotation Xrotation Yrotation
                        JOINT RightHandIndex2
                        {
                          OFFSET -3.61937 0 0
                          CHANNELS 3 Zrotation Xrotation Yrotation
                          JOINT RightHandIndex3
                          {
                            OFFSET -2.0521 0 0
                            CHANNELS 3 Zrotation Xrotation Yrotation
                            End Site
                            {
                              OFFSET -1.805 0 0
                            }
                          }
                        }
                      }
                    }
                    JOINT RightInHandMiddle
                    {
                      OFFSET -3.38211 0.517263 0.756737
                      CHANNELS 3 Zrotation Xrotation Yrotation
                      JOINT RightHandMiddle1
                      {
                        OFFSET -5.17411 -0.084 0.313895
                        CHANNELS 3 Zrotation Xrotation Yrotation
                        JOINT RightHandMiddle2
                        {
                          OFFSET -3.94947 0 0
                          CHANNELS 3 Zrotation Xrotation Yrotation
                          JOINT RightHandMiddle3
                          {
                            OFFSET -2.47579 0 0
                            CHANNELS 3 Zrotation Xrotation Yrotation
                            End Site
                            {
                              OFFSET -1.975 0 0
                            }
                          }
                        }
                      }
                    }
                    JOINT RightInHandRing
                    {
                      OFFSET -3.36516 0.537895 -0.128947
                      CHANNELS 3 Zrotation Xrotation Yrotation
                      JOINT RightHandRing1
                      {
                        OFFSET -4.63474 -0.022105 -0.478947
                        CHANNELS 3 Zrotation Xrotation Yrotation
                        JOINT RightHandRing2
                        {
                          OFFSET -3.44238 0 0
                          CHANNELS 3 Zrotation Xrotation Yrotation
                          JOINT RightHandRing3
                          {
                            OFFSET -2.3881 0 0
                            CHANNELS 3 Zrotation Xrotation Yrotation
                            End Site
                            {
                              OFFSET -1.857 0 0
                            }
                          }
                        }
                      }
                    }
                    JOINT RightInHandPinky
                    {
                      OFFSET -3.16105 0.469368 -1.20179
                      CHANNELS 3 Zrotation Xrotation Yrotation
                      JOINT RightHandPinky1
                      {
                        OFFSET -4.14105 -0.022105 -1.09053
                        CHANNELS 3 Zrotation Xrotation Yrotation
                        JOINT RightHandPinky2
                        {
                          OFFSET -2.75653 0 0
                          CHANNELS 3 Zrotation Xrotation Yrotation
                          JOINT RightHandPinky3
                          {
                            OFFSET -1.74189 0 0
                            CHANNELS 3 Zrotation Xrotation Yrotation
                            End Site
                            {
                              OFFSET -1.645 0 0
                            }
                          }
                        }
                      }
                    }
                  }
                }
              }
            }
            JOINT LeftShoulder
            {
              OFFSET 3.23633 6.91116 -0.0162332
              CHANNELS 3 Zrotation Xrotation Yrotation
              JOINT LeftArm
              {
                OFFSET 12.8112 -0.0136289 -0.0286256
                CHANNELS 3 Zrotation Xrotation Yrotation
                JOINT LeftForeArm
                {
                  OFFSET 26.502 -0.0235899 -0.00806802
                  CHANNELS 3 Zrotation Xrotation Yrotation
                  JOINT LeftHand
                  {
                    OFFSET 25.9974 -0.0321613 -0.027004
                    CHANNELS 3 Zrotation Xrotation Yrotation
                    JOINT LeftHandThumb1
                    {
                      OFFSET 2.48905 0.190105 3.12053
                      CHANNELS 3 Zrotation Xrotation Yrotation
                      JOINT LeftHandThumb2
                      {
                        OFFSET 3.68274 0 0
                        CHANNELS 3 Zrotation Xrotation Yrotation
                        JOINT LeftHandThumb3
                        {
                          OFFSET 2.55832 0 0
                          CHANNELS 3 Zrotation Xrotation Yrotation
                          End Site
                          {
                            OFFSET 2.194 0 0
                          }
                        }
                      }
                    }
                    JOINT LeftInHandIndex
                    {
                      OFFSET 3.22368 0.508421 1.97842
                      CHANNELS 3 Zrotation Xrotation Yrotation
                      JOINT LeftHandIndex1
                      {
                        OFFSET 5.21684 -0.091368 0.999158
                        CHANNELS 3 Zrotation Xrotation Yrotation
                        JOINT LeftHandIndex2
                        {
                          OFFSET 3.61937 0 0
                          CHANNELS 3 Zrotation Xrotation Yrotation
                          JOINT LeftHandIndex3
                          {
                            OFFSET 2.0521 0 0
                            CHANNELS 3 Zrotation Xrotation Yrotation
                            End Site
                            {
                              OFFSET 1.805 0 0
                            }
                          }
                        }
                      }
                    }
                    JOINT LeftInHandMiddle
                    {
                      OFFSET 3.38211 0.517263 0.756737
                      CHANNELS 3 Zrotation Xrotation Yrotation
                      JOINT LeftHandMiddle1
                      {
                        OFFSET 5.17411 -0.084 0.313895
                        CHANNELS 3 Zrotation Xrotation Yrotation
                        JOINT LeftHandMiddle2
                        {
                          OFFSET 3.94947 0 0
                          CHANNELS 3 Zrotation Xrotation Yrotation
                          JOINT LeftHandMiddle3
                          {
                            OFFSET 2.47579 0 0
                            CHANNELS 3 Zrotation Xrotation Yrotation
                            End Site
                            {
                              OFFSET 1.975 0 0
                            }
                          }
                        }
                      }
                    }
                    JOINT LeftInHandRing
                    {
                      OFFSET 3.36516 0.537895 -0.128947
                      CHANNELS 3 Zrotation Xrotation Yrotation
                      JOINT LeftHandRing1
                      {
                        OFFSET 4.63474 -0.022105 -0.478947
                        CHANNELS 3 Zrotation Xrotation Yrotation
                        JOINT LeftHandRing2
                        {
                          OFFSET 3.44238 0 0
                          CHANNELS 3 Zrotation Xrotation Yrotation
                          JOINT LeftHandRing3
                          {
                            OFFSET 2.3881 0 0
                            CHANNELS 3 Zrotation Xrotation Yrotation
                            End Site
                            {
                              OFFSET 1.857 0 0
                            }
                          }
                        }
                      }
                    }
                    JOINT LeftInHandPinky
                    {
                      OFFSET 3.16105 0.469368 -1.20179
                      CHANNELS 3 Zrotation Xrotation Yrotation
                      JOINT LeftHandPinky1
                      {
                        OFFSET 4.14105 -0.022105 -1.09053
                        CHANNELS 3 Zrotation Xrotation Yrotation
                        JOINT LeftHandPinky2
                        {
                          OFFSET 2.75653 0 0
                          CHANNELS 3 Zrotation Xrotation Yrotation
                          JOINT LeftHandPinky3
                          {
                            OFFSET 1.74189 0 0
                            CHANNELS 3 Zrotation Xrotation Yrotation
                            End Site
                            {
                              OFFSET 1.645 0 0
                            }
                          }
                        }
                      }
                    }
                  }
                }
              }
            }
          }
        }
      }
    }
  }
}
MOTION
Frames:	4
Frame Time:	0.00833333
0 0 0 0 0 -0 22.9172 15.6282 -60.0832 -12.5838 -51.3962 -16.798 -4.52003 28.4029 -12.7883 9.63242 -1.54819 25.5575 6.14699 -46.1822 -10.2034 7.87043 29.6964 -2.22716 -13.3144 -11.5916 -20.8943 -3.78846 15.0557 10.9054 -0.68687 3.71702 2.68838 -1.1768 5.94632 4.4722 -0.0575413 -0.528574 -0.556147 -0.0572948 -0.531461 -0.55495 -1.81745 -9.97747 -9.79591 0.194283 -14.3684 25.1412 64.7929 3.30369 52.4338 16.3948 -50.0476 -0.654957 13.0556 -25.9557 -17.3509 28.184 10.7294 19.1592 1.33391e-14 2.38542e-15 -10 2.80409e-16 1.59028e-15 -10 5.29669e-31 -3.18055e-15 9.54166e-15 19.9818 0.871897 2.3964 24 1.59028e-15 3.18055e-15 20 4.37326e-15 6.36111e-15 5.29669e-31 -3.18055e-15 9.54166e-15 20 0 -0 24 4.77083e-15 6.36111e-15 20 -4.27387e-15 9.54166e-15 5.29669e-31 -3.18055e-15 9.54166e-15 19.9748 -1.02565 -2.81938 24 7.95139e-15 -3.18055e-15 20 -5.32991e-15 2.22639e-14 5.29669e-31 -3.18055e-15 9.54166e-15 19.7815 -3.00948 -8.30515 24 1.11319e-14 9.54166e-15 20 6.36111e-15 -0 16.1074 -13.8805 -29.8125 -34.6693 33.2568 -69.1691 12.9678 -80.642 13.7721 -26.8994 -23.5777 7.98932 -28.184 10.7294 -19.1592 -1.35469e-14 1.27222e-14 10 5.0572e-15 7.95139e-15 10 9.54166e-15 0 -0 -19.9818 0.871897 -2.3964 -24 7.95139e-16 9.54166e-15 -20 -7.95139e-15 9.54166e-15 9.54166e-15 0 -0 -20 -1.59028e-15 9.54166e-15 -24 3.23025e-15 2.8625e-14 -20 -6.36111e-15 6.36111e-15 9.54166e-15 0 -0 -19.9748 -1.02565 2.81938 -24 2.98177e-15 -0 -20 -4.77083e-15 -6.36111e-15 9.54166e-15 0 -0 -19.7815 -3.00948 8.30515 -24 -1.98785e-15 1.59028e-14 -20 6.36111e-15 -0 
0 0 0 0 0 -0 22.9184 15.6262 -60.0877 -12.5796 -51.3987 -16.7916 -4.51558 28.387 -12.7709 9.62592 -1.53568 25.5329 6.16507 -46.2016 -10.1751 7.86602 29.7107 -2.24349 -13.3144 -11.5916 -20.8943 -3.78712 15.0469 10.9065 -0.68687 3.71702 2.68838 -1.1768 5.94632 4.4722 -0.0575413 -0.528574 -0.556147 -0.0572948 -0.531461 -0.55495 -1.82749 -9.9692 -9.78642 0.195367 -14.3573 25.143 64.7978 3.30282 52.4337 16.462 -50.0807 -0.587345 13.049 -25.9527 -17.3518 28.184 10.7294 19.1592 1.33391e-14 2.38542e-15 -10 6.73965e-15 1.59028e-15 -10 8.82781e-31 -6.36111e-15 7.95139e-15 19.9818 0.871897 2.3964 24 1.59028e-15 -0 20 4.17448e-15 1.27222e-14 8.82781e-31 -6.36111e-15 7.95139e-15 20 0 -9.54166e-15 24 9.54166e-15 6.36111e-15 20 1.68967e-15 -0 8.82781e-31 -6.36111e-15 7.95139e-15 19.9748 -1.02565 -2.81938 24 0 6.36111e-15 20 -2.41026e-15 2.22639e-14 8.82781e-31 -6.36111e-15 7.95139e-15 19.7815 -3.00948 -8.30515 24 1.43125e-14 6.36111e-15 20 1.66979e-14 -6.36111e-15 16.0985 -13.873 -29.8115 -34.6615 33.2636 -69.1643 12.8923 -80.5831 13.6988 -26.9417 -23.5282 7.96784 -28.184 10.7294 -19.1592 -7.02006e-15 3.18055e-15 10 9.12804e-15 3.18055e-15 10 7.95139e-15 0 -6.36111e-15 -19.9818 0.871897 -2.3964 -24 -1.09332e-15 -3.18055e-15 -20 -3.18055e-15 1.27222e-14 7.95139e-15 0 -6.36111e-15 -20 3.18055e-15 -0 -24 1.21756e-15 6.36111e-15 -20 -3.18055e-15 -9.54166e-15 7.95139e-15 0 -6.36111e-15 -19.9748 -1.02565 2.81938 -24 1.19271e-15 3.18055e-15 -20 -9.54166e-15 -3.18055e-15 7.95139e-15 0 -6.36111e-15 -19.7815 -3.00948 8.30515 -24 2.38542e-15 6.36111e-15 -20 0 -9.54166e-15 
0 0 0 0 0 -0 22.9226 15.6174 -60.105 -12.5649 -51.4111 -16.7591 -4.52964 28.3791 -12.7617 9.63302 -1.51874 25.5198 6.18647 -46.2194 -10.13 7.85696 29.7227 -2.24836 -13.3161 -11.5909 -20.903 -3.79185 15.0309 10.9137 -0.68687 3.71702 2.68838 -1.17635 5.94059 4.47215 -0.0575413 -0.528574 -0.556147 -0.0572948 -0.531461 -0.55495 -1.83489 -9.95802 -9.7767 0.198253 -14.3303 25.1613 64.8056 3.27111 52.4326 16.5656 -50.1694 -0.50489 13.1511 -25.8823 -17.3197 28.184 10.7294 19.1592 1.79708e-14 1.03368e-14 -10 1.16517e-14 1.11319e-14 -10 6.36111e-15 3.18055e-15 4.77083e-15 19.9818 0.871897 2.3964 24 2.38542e-15 -3.18055e-15 20 1.76918e-14 1.27222e-14 6.36111e-15 3.18055e-15 4.77083e-15 20 0 -1.27222e-14 24 6.36111e-15 -0 20 -1.49089e-15 6.36111e-15 6.36111e-15 3.18055e-15 4.77083e-15 19.9748 -1.02565 -2.81938 24 -1.74931e-14 -0 20 1.5704e-14 1.59028e-14 6.36111e-15 3.18055e-15 4.77083e-15 19.7815 -3.00948 -8.30515 24 9.54166e-15 1.90833e-14 20 6.36111e-15 -0 16.0828 -13.8562 -29.8091 -34.6106 33.2034 -69.2427 13.0771 -80.4703 13.9671 -27.0412 -23.4107 7.91749 -28.184 10.7294 -19.1592 -1.13037e-14 0 10 -2.6688e-15 -3.18055e-15 10 1.59028e-14 -3.18055e-15 -9.54166e-15 -19.9818 0.871897 -2.3964 -24 -1.19271e-15 -0 -20 -1.59028e-15 3.18055e-15 1.59028e-14 -3.18055e-15 -9.54166e-15 -20 -1.59028e-15 1.27222e-14 -24 1.00883e-14 1.59028e-14 -20 -4.77083e-15 -1.59028e-14 1.59028e-14 -3.18055e-15 -9.54166e-15 -19.9748 -1.02565 2.81938 -24 -1.25234e-14 -9.54166e-15 -20 -4.77083e-15 -1.90833e-14 1.59028e-14 -3.18055e-15 -9.54166e-15 -19.7815 -3.00948 8.30515 -24 6.75868e-15 1.27222e-14 -20 4.77083e-15 -1.59028e-14 
0 0 0 0 0 -0 22.9309 15.6172 -60.1305 -12.5419 -51.4328 -16.7092 -4.52646 28.364 -12.7592 9.63093 -1.48976 25.4951 6.23942 -46.2435 -10.0582 7.84197 29.7443 -2.25312 -13.319 -11.5989 -20.9191 -3.79709 15.0094 10.928 -0.68687 3.71702 2.68838 -1.17627 5.93271 4.47732 -0.0575323 -0.527651 -0.556147 -0.0572859 -0.530539 -0.55495 -1.83779 -9.94386 -9.77432 0.21727 -14.2953 25.1524 64.8018 3.27213 52.4437 16.8325 -50.3439 -0.307785 13.2651 -25.7476 -17.2154 28.184 10.7294 19.1592 1.08105e-14 6.36111e-15 -10 4.91207e-15 9.54166e-15 -10 3.18055e-15 0 4.77083e-15 19.9818 0.871897 2.3964 24 -5.56597e-15 -9.54166e-15 20 6.16232e-15 -9.54166e-15 3.18055e-15 0 4.77083e-15 20 -3.18055e-15 -2.22639e-14 24 4.77083e-15 -1.59028e-14 20 0 -0 3.18055e-15 0 4.77083e-15 19.9748 -1.02565 -2.81938 24 -4.77083e-15 -2.54444e-14 20 -1.23246e-14 3.18055e-15 3.18055e-15 0 4.77083e-15 19.7815 -3.00948 -8.30515 24 -4.77083e-15 -0 20 3.57812e-15 -1.59028e-14 16.0604 -13.8228 -29.806 -34.5049 33.1131 -69.3572 13.1135 -80.2017 14.1881 -27.1381 -23.3594 7.80948 -28.184 10.7294 -19.1592 -2.80409e-15 1.59028e-14 10 6.17883e-15 1.59028e-15 10 1.74931e-14 -3.18055e-15 -0 -19.9818 0.871897 -2.3964 -24 2.38542e-15 -0 -20 -6.36111e-15 -3.18055e-15 1.74931e-14 -3.18055e-15 -0 -20 1.59028e-15 -0 -24 4.74598e-15 -0 -20 3.18055e-15 -3.18055e-15 1.74931e-14 -3.18055e-15 -0 -19.9748 -1.02565 2.81938 -24 1.98785e-16 -9.54166e-15 -20 -3.18055e-15 -2.54444e-14 1.74931e-14 -3.18055e-15 -0 -19.7815 -3.00948 8.30515 -24 1.59028e-15 3.18055e-15 -20 -1.59028e-15 -2.54444e-14 
